<?xml version="1.0" encoding="utf-8"?>
<!-- Generator: Adobe Illustrator 16.0.0, SVG Export Plug-In . SVG Version: 6.00 Build 0)  -->
<!DOCTYPE svg PUBLIC "-//W3C//DTD SVG 1.1//EN" "http://www.w3.org/Graphics/SVG/1.1/DTD/svg11.dtd">
<svg version="1.1" id="Layer_1" xmlns="http://www.w3.org/2000/svg" xmlns:xlink="http://www.w3.org/1999/xlink" x="0px" y="0px"
	 width="60px" height="60px" viewBox="0 0 60 60" enable-background="new 0 0 60 60" xml:space="preserve">
<g>
	<path d="M45.895,15.121c-0.375,1.311,0,0.748-1.027,1.777c-1.778,1.777-18.154,8.703-18.154,8.703s-1.216,0.094-2.059,2.619
		c-0.562,1.592-0.094,3.933-1.123,4.024c-0.937,0.094-4.586-0.096-4.68,0.938c-0.094,1.123-0.373,2.34,0.094,2.06
		c0.281-0.095,0.562-0.937,2.246-0.937c1.965,0,5.521,0.372,6.084-2.902c0.562-3.367-0.562-2.899,3.088-4.583
		c3.649-1.686,19.465-7.301,16.75-11.791c-2.061-3.463-1.217-0.842-1.217-0.842v0.935H45.895z"/>
	<path d="M15.48,37.486c0,0,0.562-2.9,5.428-1.403c4.865,1.496,18.621,6.55,19.464,7.394c1.966,1.965,0.188,2.81-1.216,3.932
		c-2.901,2.244,0.936,4.211,1.684,3.74c0.936-0.562-1.777,1.123-3.462,0.656c-0.842-0.188-4.116-3.369,0.281-4.961
		c3.743-1.402-6.646-4.398-8.329-4.959c-1.123-0.375-10.105-4.306-11.51-4.117c-1.123,0.094-2.059,0.654-2.059,0.654l-0.094,0.936
		v-1.871H15.48L15.48,37.486z"/>
	<path d="M34.384,34.023c0.093-0.188,0.093-0.28-0.375-0.562c-0.561-0.279-0.561-0.749-0.372-3.931
		c0.092-2.62,8.607-6.646,9.449-7.112c-2.059,1.123,5.146-2.246,4.866-5.428c3.931,4.118-7.205,8.422-8.142,9.265
		c-0.748,0.655-2.9,1.592-3.463,2.809c-1.312,2.713,0,4.491,0,4.491l-0.562,1.312v0.374l0.374,0.094l0.375,0.095l0.093,0.279
		l-0.093,0.281l0.188,0.094l-0.097,0.093c0,0,0.281,0,0.188,0.281c0,0-0.375,0.842,0.095,1.028c0.468,0.279,3.93,0.375,4.96,0.094
		c-0.188,0.095,1.775,0,1.775,0c5.614-0.188,4.586,2.525,2.061,4.396c-5.146,3.838,3.273,5.24,3.273,5.24s-1.686,2.62-5.521,0.562
		c-1.03-0.562-1.871-3.368,0-4.959c4.117-3.369,0.468-4.773-7.484-4.023c-0.47,0-0.562,0-0.845-0.188
		c-0.093-0.094-0.374-0.748-0.278-1.03c0.092-0.28,0.092-0.373,0-0.468c-0.096-0.094-0.096-0.28-0.096-0.28l0.374-0.28"/>
	<path d="M34.384,34.023c0,0-0.747,1.027-0.843,1.123c-0.093,0.188-0.468,0.937,0.279,0.937c0.656,0,0.75,0.093,0.75,0.187
		c-0.094,0.471,0.281,0.562,0.281,0.562h0.277"/>
	<path d="M39.998,36.736c0.188,0.095,0.562,0.188,0.842,0.188c0,0,3.09-0.468,3.65-0.468c0.56,0,2.807,0.188,4.679,2.06
		c0,0,2.899,1.777,5.614-2.619c1.123-1.776-2.34,4.021-5.428-0.096c-0.467-0.654-3.369-0.374-2.9-0.374
		c-1.404-0.188-6.083,1.403-5.053-0.562c0.093-0.188-0.188-0.28-0.188-0.28l0.093-0.095l-0.187-0.094l0.094-0.188L41.12,34.02
		l-0.281-0.092l-0.187-0.188v-0.28l0.468-1.123c0,0-1.123-1.123-0.187-3.275c0.092-0.094,1.774-1.685,3.271-2.151
		c-0.28,0.093,7.58-3.65,4.305-5.989c-0.371,1.871-1.775,2.526-2.433,2.994c-4.308,2.527-6.831,3.088-7.206,4.96
		c-0.562,2.62-0.188,2.994,0.279,3.272c0,0,0.188,0.097,0.188,0.281c-0.093,0.28-0.374,0.748-0.374,1.029
		c-0.094,0.28-0.652,1.027,0,1.216c0.655,0.095,0.562-0.28,0.562,0.188c0,0.373,0.095,0.373,0.188,0.373c0.096,0,0,0.188,0,0.188
		s-0.094,0.188,0.096,0.28C39.811,35.802,39.438,36.457,39.998,36.736"/>
	<path d="M34.104,49.559c0-0.095-0.095-0.095-0.188-0.095c-0.468,0.188-0.375,0.655-0.279,1.03c0.188,0.654,0.562,0.748,0.84,0.654
		h0.098L34.104,49.559z M34.943,50.773c0.096,0.281,0.096,0.281,0.375,0.188v0.094l-0.938,0.28c-0.843,0.28-1.217-0.28-1.4-0.653
		c-0.188-0.471-0.098-1.029,0.748-1.312l0.936-0.281v0.095c-0.28,0.094-0.28,0.188-0.188,0.375L34.943,50.773z"/>
	<path d="M31.855,51.055c-0.373,0.094-0.373,0.281-0.373,0.562h-0.094L31.2,50.588h0.094c0.095,0.28,0.188,0.469,0.562,0.375
		L31.764,50.4c-0.095-0.279-0.095-0.279-0.281-0.279c-0.278,0.093-0.652,0.093-0.652,0.654h-0.098v-0.654l1.779-0.375v0.095
		c-0.281,0.093-0.281,0.093-0.188,0.373l0.279,1.218c0,0.28,0.095,0.28,0.375,0.28v0.095l-1.687,0.279l-0.375-0.562h0.097
		c0.188,0.471,0.373,0.471,0.748,0.375h0.188L31.855,51.055z"/>
	<path d="M29.424,51.336L29.424,51.336c-0.374,0-0.468,0.188-0.468,0.469c0,0.279,0.187,0.467,0.468,0.373h0.094L29.424,51.336z
		 M29.424,50.682c0-0.281,0-0.375-0.281-0.281v-0.094l1.03-0.095v0.095c-0.28,0-0.28,0.094-0.28,0.375l0.094,1.312
		c0,0.278,0,0.375,0.281,0.278v0.097l-0.937,0.094c-0.468,0-0.749-0.094-0.843-0.469c0-0.28,0.188-0.562,0.843-0.654h0.094
		L29.424,50.682L29.424,50.682z"/>
	<path d="M27.271,51.805l0.375-0.656h-0.655L27.271,51.805z M27.74,50.962l0.094-0.188c0-0.094,0.093-0.094,0.093-0.188
		c0-0.188-0.093-0.188-0.28-0.188v-0.094h0.655v0.094c-0.188,0-0.28,0.278-0.375,0.468l-0.842,1.592l0,0l-0.749-1.778
		c-0.094-0.094-0.094-0.373-0.281-0.373v-0.096h1.029v0.096c-0.094,0-0.281,0-0.281,0.092c0,0.098,0,0.098,0,0.098l0.094,0.277
		L27.74,50.962z"/>
	<path d="M24.838,51.242H24.65c-0.375-0.094-0.467,0.094-0.561,0.374c0,0.28,0.094,0.468,0.374,0.562h0.187L24.838,51.242z
		 M24.932,50.587c0-0.28,0.094-0.375-0.281-0.375v-0.093l1.029,0.188V50.4c-0.279,0-0.279,0-0.373,0.281l-0.188,1.31
		c0,0.28,0,0.375,0.28,0.375v0.094l-1.123-0.188c-0.469-0.094-0.748-0.278-0.655-0.652c0-0.28,0.28-0.471,0.562-0.471l-0.468-0.842
		c-0.093-0.095-0.093-0.188-0.187-0.188v-0.094l0.654,0.094l0.562,1.029h0.093L24.932,50.587z"/>
	<path d="M21.751,51.521l0.374-1.496c0.094-0.281,0.094-0.281-0.188-0.375v-0.094l1.029,0.279v0.096
		c-0.281-0.096-0.281,0-0.375,0.277l-0.374,1.498h0.187c0.188,0.094,0.375,0,0.562-0.277h0.094l-0.094,0.561l-1.871-0.561
		l0.092-0.562h0.095c0,0.375,0.093,0.469,0.28,0.562L21.751,51.521z"/>
	<path d="M18.663,50.587l-0.749-0.28v-0.095c0.279,0.095,0.279,0,0.374-0.187l0.468-1.217c0.094-0.188,0.094-0.281-0.188-0.375
		V48.34l1.029,0.375v0.094c-0.281-0.094-0.281,0-0.373,0.188l-0.562,1.401l0,0l1.402-1.401l0,0v1.966l0,0l0.562-1.402
		c0.094-0.188,0-0.28-0.188-0.375V49.09l0.656,0.281v0.093c-0.188-0.093-0.281,0-0.375,0.095l-0.469,1.217
		c-0.094,0.188-0.094,0.279,0.188,0.373v0.097l-0.75-0.28v-1.498L18.663,50.587z"/>
	<path d="M17.072,48.716c-0.281-0.188-0.469,0-0.655,0.188h-0.094l0.562-0.938h0.094c-0.094,0.281-0.187,0.47,0.095,0.655
		l0.28-0.469c0.095-0.188,0.188-0.28,0-0.375c-0.28-0.188-0.562-0.279-0.936,0.095v-0.095l0.375-0.562l1.497,0.844v0.094
		c-0.28-0.188-0.28-0.094-0.374,0.188l-0.654,1.123c-0.095,0.188-0.188,0.28,0.094,0.469v0.096l-1.498-0.844l0.281-0.562h0.092
		c-0.187,0.468,0,0.562,0.375,0.749l0.188,0.093L17.072,48.716z"/>
	<path d="M14.451,46.656L14.451,46.656l-0.562,0.749c-0.093,0.094-0.093,0.28,0.094,0.374l0,0l-0.562-0.374l0,0
		c0.188,0.094,0.281,0.094,0.375,0l1.029-1.404l0,0l0.094,2.153l0,0l0.843-1.123c0.094-0.094,0.094-0.28-0.094-0.375l0,0
		l0.562,0.375l0,0c-0.188-0.094-0.281-0.094-0.375,0l-0.937,1.217c0,0.188,0,0.279,0.095,0.374l0,0l-0.469-0.374L14.451,46.656z"/>
	<path d="M12.206,46.096l1.028-1.123c0.188-0.188,0.188-0.281,0-0.468l0,0l0.75,0.748l0,0c-0.188-0.188-0.28-0.188-0.469,0
		l-1.029,1.123l0.095,0.095c0.187,0.188,0.28,0.188,0.655,0l0,0l-0.375,0.373l-1.311-1.216l0.375-0.375l0,0
		c-0.188,0.28-0.188,0.468,0,0.655L12.206,46.096z"/>
	<path d="M10.147,42.445c-0.281,0.188-0.749,0.654-0.468,1.029c0.281,0.375,0.842,0.094,1.123-0.096
		c0.281-0.188,0.749-0.652,0.468-1.027C10.988,41.885,10.521,42.165,10.147,42.445 M11.176,43.756
		c-0.468,0.374-1.123,0.281-1.498-0.188c-0.374-0.469-0.28-1.123,0.188-1.496c0.468-0.375,1.122-0.282,1.497,0.186
		C11.738,42.727,11.645,43.382,11.176,43.756"/>
	<path d="M9.772,40.574c0.188-0.094,0.281-0.188,0.094-0.374H9.96l0.562,0.936h-0.093c-0.188-0.28-0.188-0.187-0.468-0.094
		l-1.123,0.655c-0.187,0.093-0.281,0.188-0.094,0.375H8.65l-0.843-1.498l0.562-0.28v0.093c-0.374,0.281-0.28,0.469-0.093,0.844
		l0.093,0.188l0.749-0.468c-0.187-0.375-0.375-0.281-0.655-0.188v-0.096l0.936-0.562V40.2c-0.281,0.187-0.375,0.28-0.188,0.653
		L9.772,40.574z"/>
	<path d="M8.275,37.674c0.281-0.095,0.281-0.095,0.187-0.375h0.094l0.375,1.03H8.837c-0.094-0.282-0.187-0.282-0.375-0.188
		l-1.216,0.469c-0.281,0.095-0.281,0.095-0.187,0.373H6.965L6.59,37.954h0.094c0.094,0.28,0.187,0.28,0.375,0.188l0.468-0.188
		l-0.281-0.655l-0.468,0.188C6.497,37.58,6.497,37.58,6.59,37.861H6.497l-0.375-1.029h0.094c0.094,0.279,0.187,0.279,0.374,0.188
		l1.216-0.468c0.281-0.094,0.281-0.094,0.188-0.375h0.094l0.374,1.03H8.368c-0.093-0.281-0.187-0.281-0.374-0.188l-0.562,0.188
		l0.281,0.654L8.275,37.674z"/>
	<path d="M6.778,35.24c-0.094-0.374-0.281-0.374-0.562-0.281v-0.093l1.029-0.28v0.094c-0.281,0.094-0.468,0.188-0.375,0.562
		l0.562-0.096c0.281-0.092,0.281-0.092,0.281-0.278c-0.093-0.28-0.187-0.655-0.749-0.655V34.12l0.655-0.097l0.468,1.687H7.993
		c-0.094-0.278-0.188-0.278-0.374-0.188l-1.217,0.28c-0.281,0.095-0.281,0.095-0.281,0.374H6.027l-0.374-1.685l0.562-0.187v0.094
		c-0.468,0.188-0.374,0.373-0.281,0.842v0.188L6.778,35.24z"/>
	<path d="M6.029,32.809l0.749,0.188l-0.094-0.655L6.029,32.809z M6.872,33.088l0.188,0.094c0.093,0,0.187,0,0.187,0
		c0.187,0,0.187-0.094,0.093-0.281h0.094l0.094,0.656H7.434c0-0.188-0.281-0.281-0.468-0.281l-1.685-0.562l0,0l1.591-0.937
		c0.094-0.094,0.281-0.188,0.281-0.375h0.094l0.093,1.029H7.247c0-0.095,0-0.279-0.094-0.188c-0.093,0-0.093,0-0.093,0l-0.281,0.188
		L6.872,33.088z"/>
	<path d="M7.246,29.251v1.872H7.152c0-0.28-0.093-0.28-0.374-0.28H5.467c-0.28,0-0.374,0-0.374,0.28H5V30h0.094
		c0,0.28,0.094,0.28,0.374,0.28h1.217c0.281,0,0.281,0,0.281-0.374s-0.094-0.562-0.562-0.749v-0.093L7.246,29.251z"/>
	<path d="M5.468,27.66l1.591,0.188c0.28,0,0.374,0,0.374-0.281h0.094l-0.094,1.029H7.339c0-0.279-0.093-0.279-0.28-0.279
		l-1.685-0.188v0.188c0,0.279,0,0.373,0.375,0.468v0.094H5.187l0.187-1.872L5.935,27.1v0.094c-0.374,0.095-0.468,0.188-0.468,0.375
		L5.468,27.66L5.468,27.66z"/>
	<path d="M7.246,25.977c0.281,0.094,0.281,0.094,0.375-0.188h0.093l-0.187,1.029H7.433c0.094-0.281,0-0.281-0.281-0.375l-1.217-0.28
		c-0.28-0.095-0.28-0.095-0.374,0.188H5.467l0.188-1.029h0.094c-0.094,0.279,0,0.279,0.28,0.373l0.562,0.095l0.188-0.749
		l-0.655-0.094c-0.28-0.094-0.28-0.094-0.374,0.188H5.656l0.188-1.029h0.093c-0.093,0.28,0,0.28,0.281,0.375l1.216,0.28
		c0.281,0.093,0.281,0.093,0.374-0.188h0.094l-0.187,1.028H7.622c0.093-0.279,0-0.279-0.281-0.373L6.78,25.134l-0.188,0.749
		L7.246,25.977z"/>
	<path d="M7.807,22.514c0.281,0.094,0.655,0,0.749-0.279c0-0.094,0-0.188,0-0.281c-0.281,0.094-0.655,0.188-0.936,0.188
		C7.621,22.326,7.714,22.42,7.807,22.514 M7.433,21.391c-0.094-0.094-0.374-0.094-0.468,0.094c0,0.095,0,0.188,0.094,0.281
		c0.093,0.094,0.28,0,0.468,0C7.527,21.578,7.527,21.391,7.433,21.391 M8.088,20.643L8.088,20.643c0,0.188,0.094,0.28,0.187,0.469
		c0.093,0.093,0.187,0.279,0.281,0.373c0.094-0.094,0.281-0.094,0.375-0.28c0-0.093,0-0.187-0.094-0.28h0.094
		c0.187,0.188,0.28,0.374,0.187,0.655c-0.094,0.187-0.281,0.28-0.375,0.374c0.094,0.281,0,0.468-0.093,0.749
		c-0.188,0.562-0.655,0.374-0.749,0.374c-0.374-0.188-0.374-0.562-0.374-0.842c-0.094,0-0.281,0-0.375-0.094
		c-0.281-0.095-0.468-0.469-0.281-0.75c0.094-0.188,0.281-0.373,0.468-0.279C7.62,21.205,7.62,21.58,7.62,21.766
		c0.28,0,0.562-0.094,0.748-0.188c-0.093-0.094-0.187-0.281-0.28-0.375c-0.094,0-0.188,0-0.188,0.094H7.806L8.088,20.643z"/>
	<path d="M10.054,18.864c0.187,0.094,0.28,0.187,0.467-0.095h0.094l-0.561,0.937H9.96c0.187-0.28,0.094-0.28-0.094-0.468
		L8.837,18.49c-0.187-0.094-0.281-0.188-0.468,0.093H8.276l0.562-0.937l0,0c-0.187,0.281-0.094,0.281,0.094,0.469L9.4,18.396
		l0.468-0.562L9.4,17.553c-0.188-0.093-0.281-0.187-0.468,0.094H8.838L9.4,16.711l0,0c-0.188,0.28-0.094,0.28,0.094,0.469
		l1.029,0.748c0.187,0.094,0.279,0.188,0.468-0.094l0,0l-0.562,0.936l0,0c0.187-0.279,0.094-0.279-0.094-0.468l-0.468-0.374
		L9.493,18.49L10.054,18.864z"/>
	<path d="M10.802,15.121l0.468-0.562l0,0c-0.188,0.188-0.094,0.28,0.094,0.469l0.654,0.562c0.188,0.187,0.562,0.562,0.094,1.123
		c-0.373,0.374-0.654,0.374-1.028,0.095l-0.749-0.656c-0.187-0.188-0.28-0.188-0.468,0l0,0l0.749-0.842l0,0
		c-0.187,0.188-0.094,0.28,0.094,0.467l0.842,0.75c0.188,0.188,0.375,0.281,0.655,0c0.28-0.28,0.094-0.562-0.095-0.75l-0.748-0.561
		C11.083,15.027,10.988,14.934,10.802,15.121L10.802,15.121z"/>
	<path d="M13.143,12.875l0.654-0.562l0,0c-0.188,0.188-0.188,0.281,0,0.469l0.842,0.937c0.188,0.188,0.188,0.28,0.469,0.093l0,0
		l-0.842,0.75l0,0c0.187-0.188,0.187-0.28,0-0.469l-1.031-1.123l0,0l0.656,1.871l0,0l-1.779-0.748l0,0l1.031,1.123
		c0.092,0.094,0.187,0.094,0.373,0l0,0l-0.562,0.469l0,0c0.188-0.095,0.188-0.281,0.094-0.375l-0.937-1.029
		c-0.187-0.188-0.187-0.28-0.467-0.094l0,0l0.654-0.562l1.311,0.655L13.143,12.875z"/>
	<path d="M15.387,12.032l0.094,0.749l0.562-0.374L15.387,12.032z M15.48,12.875v0.188c0,0.095,0,0.188,0.095,0.188
		c0.093,0.094,0.187,0.094,0.28,0l0,0l-0.562,0.375l0,0c0.188-0.094,0.094-0.375,0.094-0.562l-0.281-1.777l0,0l1.592,1.029
		c0.094,0.094,0.281,0.188,0.468,0.094l0,0l-0.749,0.562l0,0c0.094-0.094,0.188-0.094,0.188-0.188l-0.094-0.095l-0.281-0.187
		L15.48,12.875z"/>
	<path d="M18.663,10.816L18.663,10.816l-0.468-0.842c-0.094-0.188-0.188-0.188-0.375-0.094V9.786l0.656-0.28V9.6
		c-0.188,0-0.188,0.188-0.188,0.281l0.842,1.592l0,0l-1.965-0.937l0,0l0.655,1.216c0.094,0.188,0.188,0.188,0.373,0.094v0.094
		l-0.654,0.28v-0.094c0.188-0.094,0.188-0.187,0.188-0.374l-0.656-1.31c-0.188-0.094-0.188-0.094-0.375,0v-0.094l0.656-0.374
		L18.663,10.816z"/>
	<path d="M21.562,9.038L21.562,9.038c-0.188-0.28-0.467-0.468-0.748-0.374c-0.188,0.094-0.281,0.188-0.281,0.374
		c0.093,0.375,1.217,0.094,1.402,0.749c0.094,0.374-0.094,0.749-0.468,0.842c-0.187,0.094-0.28,0.094-0.374,0H21
		c-0.094,0-0.094,0.094-0.094,0.188h-0.094l-0.28-0.748h0.093c0.188,0.28,0.468,0.561,0.842,0.468
		c0.188-0.094,0.281-0.188,0.281-0.375c-0.188-0.468-1.217-0.093-1.404-0.748c-0.094-0.375,0.094-0.655,0.469-0.749
		c0.187,0,0.28-0.094,0.373,0c0.094,0,0.094,0,0.188,0c0.094,0,0.094-0.094,0.094-0.188h0.094V9.038L21.562,9.038z"/>
	<path d="M23.061,9.038c0.375-0.094,0.375-0.28,0.375-0.562h0.094l0.188,1.03h-0.093c-0.093-0.281-0.187-0.469-0.562-0.375
		l0.094,0.562c0.093,0.281,0.093,0.281,0.281,0.281c0.279-0.094,0.654-0.094,0.654-0.655h0.094v0.655l-1.778,0.374v-0.094
		c0.28-0.094,0.28-0.094,0.188-0.374l-0.281-1.217c-0.094-0.281-0.094-0.281-0.375-0.281V8.29l1.685-0.375l0.28,0.562h-0.094
		c-0.187-0.468-0.373-0.374-0.748-0.374h-0.188L23.061,9.038z"/>
	<path d="M25.4,8.664h0.187c0.375,0,0.468-0.188,0.468-0.468c0-0.281-0.187-0.468-0.468-0.468H25.4V8.664z M25.494,9.319
		c0,0.28,0,0.374,0.281,0.28v0.094l-1.029,0.094V9.693c0.281,0,0.281-0.094,0.281-0.374l-0.094-1.311c0-0.28,0-0.374-0.281-0.28
		V7.634l1.123-0.094c0.468,0,0.748,0.094,0.842,0.468c0,0.281-0.188,0.468-0.375,0.562l0.468,0.843
		C26.805,9.507,26.805,9.6,26.991,9.6v0.094l-0.655,0.094l-0.749-0.843h-0.093V9.319L25.494,9.319z"/>
	<path d="M29.236,7.635c-0.187,0-0.28,0.094-0.375,0.468l-0.748,1.591H28.02l-0.748-1.872c0-0.093-0.094-0.188-0.188-0.188V7.541
		h1.029v0.094c-0.094,0-0.28,0-0.28,0.094c0,0.093,0,0.187,0.093,0.187l0.469,1.123l0.467-0.936
		c0.095-0.094,0.095-0.188,0.095-0.281c0-0.093-0.187-0.188-0.281-0.188V7.541L29.236,7.635L29.236,7.635z"/>
	<path d="M30.359,9.413c0,0.28,0,0.374,0.282,0.374v0.094l-1.124-0.188V9.6c0.279,0,0.279,0,0.373-0.28l0.188-1.311
		c0-0.28,0-0.374-0.281-0.374V7.541l1.03,0.094v0.094c-0.281,0-0.281,0-0.375,0.28L30.359,9.413z"/>
	<path d="M33.262,8.944L33.262,8.944C33.167,8.57,32.98,8.29,32.699,8.196c-0.374-0.094-0.749,0.187-0.844,0.748
		c-0.188,0.655,0.095,1.03,0.47,1.124c0.28,0.093,0.562,0,0.748-0.188v0.188c-0.28,0.187-0.562,0.187-0.843,0.187
		c-0.654-0.187-1.028-0.655-0.842-1.217c0.094-0.562,0.748-0.936,1.311-0.842c0.188,0,0.281,0.094,0.468,0.187
		c0,0,0.095,0.094,0.187,0.094c0.098,0,0.098-0.094,0.188-0.094h0.095L33.262,8.944z"/>
	<path d="M34.477,9.6c0.375,0.094,0.469-0.093,0.562-0.28h0.093l-0.374,1.029h-0.094c0-0.28,0.094-0.468-0.28-0.562l-0.188,0.562
		c-0.092,0.28-0.092,0.28,0.097,0.374c0.278,0.094,0.651,0.188,0.938-0.28h0.094l-0.28,0.562l-1.687-0.562v-0.094
		c0.283,0.094,0.283,0,0.375-0.188l0.375-1.217c0.094-0.28,0.094-0.28-0.188-0.374V8.476l1.591,0.562L35.318,9.6h-0.094
		c0.094-0.468-0.096-0.562-0.47-0.655L34.57,8.852L34.477,9.6z"/>
	<path d="M37.473,10.536L37.473,10.536c0-0.281-0.095-0.655-0.375-0.749c-0.188-0.094-0.375-0.094-0.469,0.094
		c-0.188,0.374,0.844,0.842,0.562,1.497c-0.188,0.374-0.562,0.468-0.938,0.28c-0.188-0.094-0.188-0.188-0.374-0.28l-0.094-0.094
		c-0.096,0-0.188,0-0.188,0h-0.095l0.374-0.748h0.096c-0.096,0.28,0,0.748,0.278,0.937c0.188,0.092,0.374,0.092,0.47-0.095
		c0.188-0.468-0.844-0.842-0.47-1.497c0.19-0.281,0.563-0.374,0.845-0.281c0.094,0.094,0.188,0.094,0.28,0.281l0.095,0.094
		c0.092,0,0.092,0,0.188-0.094h0.093L37.473,10.536z"/>
	<path d="M41.495,12.312l0.562,0.469l0,0c-0.188-0.188-0.281-0.094-0.468,0.094l-0.562,0.749c-0.188,0.187-0.562,0.562-1.123,0.187
		c-0.375-0.279-0.469-0.653-0.188-1.028l0.654-0.843c0.188-0.188,0.188-0.28,0-0.467l0,0l0.843,0.653l0,0
		c-0.188-0.187-0.279-0.094-0.468,0.095l-0.749,0.937c-0.096,0.187-0.188,0.374,0.094,0.653c0.28,0.281,0.655,0,0.748-0.187
		l0.562-0.749C41.59,12.688,41.684,12.595,41.495,12.312L41.495,12.312z"/>
	<path d="M42.993,14.561L42.993,14.561c0.093-0.28,0.187-0.655-0.095-0.843c-0.094-0.094-0.28-0.188-0.469,0
		c-0.279,0.28,0.469,1.122,0,1.591c-0.279,0.28-0.654,0.188-0.938,0c-0.096-0.094-0.188-0.188-0.188-0.375c0,0,0-0.094-0.095-0.094
		c-0.094-0.093-0.094-0.093-0.188,0l0,0l0.562-0.561l0,0c-0.188,0.279-0.282,0.654,0,0.936c0.093,0.094,0.373,0.188,0.468,0
		c0.28-0.375-0.468-1.123,0-1.591c0.28-0.281,0.654-0.188,0.843,0c0.096,0.094,0.188,0.187,0.188,0.28c0,0,0,0.094,0.094,0.094
		c0.096,0.094,0.096,0,0.188,0l0,0L42.993,14.561z"/>
	<path d="M44.115,15.775l-0.748,0.188l0.374,0.469L44.115,15.775z M43.273,15.963l-0.188,0.094c-0.093,0-0.188,0-0.188,0.094
		c-0.092,0.095,0,0.188,0.098,0.281l0,0l-0.562-0.469l0,0c0.188,0.188,0.375,0.094,0.562,0l1.684-0.468l0,0l-0.842,1.685
		c-0.094,0.094-0.188,0.281-0.094,0.469l0,0l-0.562-0.75l0,0c0.094,0.095,0.188,0.188,0.188,0.095l0.094-0.095l0.188-0.279
		L43.273,15.963z"/>
	<path d="M39.062,11.658c0,0.188-0.188,0.374-0.375,0.374c-0.188,0-0.373-0.188-0.373-0.374c0-0.188,0.187-0.374,0.373-0.374
		C38.875,11.284,39.062,11.473,39.062,11.658"/>
</g>
</svg>
