<?xml version="1.0" encoding="utf-8"?>
<!-- Generator: Adobe Illustrator 16.0.0, SVG Export Plug-In . SVG Version: 6.00 Build 0)  -->
<!DOCTYPE svg PUBLIC "-//W3C//DTD SVG 1.1//EN" "http://www.w3.org/Graphics/SVG/1.1/DTD/svg11.dtd">
<svg version="1.1" id="Layer_1" xmlns="http://www.w3.org/2000/svg" xmlns:xlink="http://www.w3.org/1999/xlink" x="0px" y="0px"
	 width="60px" height="60px" viewBox="0 0 60 60" enable-background="new 0 0 60 60" xml:space="preserve">
<g>
	<polygon points="50.842,5.051 29.844,13.784 10.302,5.57 10.198,5.882 27.661,13.263 5.312,7.753 5.208,8.065 27.559,13.576 
		5.104,11.601 5.104,12.017 27.661,13.888 5,15.655 5,16.07 27.559,14.302 5,19.605 5.104,19.917 27.661,14.615 5.312,23.763 
		5.416,24.075 27.869,14.926 6.351,28.128 6.559,28.441 27.973,15.342 13.004,28.128 13.212,28.336 28.285,15.55 17.682,28.128 
		17.994,28.336 28.493,15.966 20.801,28.128 21.111,28.336 28.909,15.966 23.919,28.025 24.23,28.232 29.221,16.174 26.311,28.232 
		26.727,28.232 29.533,16.277 28.805,28.232 29.117,28.232 29.948,16.174 30.986,28.232 31.3,28.232 30.26,16.174 33.273,28.336 
		33.587,28.232 30.676,16.174 35.77,28.336 36.082,28.232 30.986,16.07 38.576,28.336 38.889,28.128 31.404,15.966 42.006,28.441 
		42.318,28.128 31.508,15.55 46.477,28.441 46.684,28.128 31.716,15.239 53.129,28.441 53.337,28.128 31.924,15.031 54.793,24.386 
		54.896,24.075 32.131,14.718 54.585,20.125 54.688,19.812 32.131,14.302 55,15.966 55,15.655 32.234,13.888 55,12.017 55,11.705 
		32.234,13.576 55,8.065 54.896,7.753 32.131,13.263 50.945,5.362 	"/>
	<path d="M28.909,43.41l0.416,1.143c0.104,0.416,0.104,0.729-0.521,0.729v0.209h2.079v-0.209c-0.416,0-0.521-0.312-0.728-0.832
		c-0.312-0.832-1.248-3.638-1.871-5.404h-0.416c-0.729,1.976-1.871,4.988-2.184,5.82c-0.104,0.312-0.416,0.416-0.623,0.416v0.209
		h1.662v-0.209c-0.416,0-0.623-0.312-0.416-0.625l0.416-1.246L28.909,43.41L28.909,43.41z M26.727,43.098l1.039-3.016l0,0
		l0.937,3.016H26.727z"/>
	<path d="M32.339,39.459h0.728c0.625,0,1.248,0.312,1.248,1.354c0,1.039-0.416,1.662-1.145,1.662h-0.727v-3.016H32.339z
		 M30.676,39.355c0.832,0.104,0.832,0.104,0.832,0.936v4.053c0,0.832,0,0.832-0.832,0.938v0.209h2.494v-0.209
		c-0.831-0.104-0.831-0.104-0.831-0.938v-1.66h0.831c1.145,1.869,1.354,2.81,1.977,2.81h0.938v-0.104
		c-0.312-0.205-0.833-0.828-1.248-1.451l-0.938-1.354c0.729-0.312,1.248-0.937,1.248-1.871c0-1.039-0.937-1.56-1.871-1.56h-2.7
		v0.207"/>
	<path d="M21.943,39.459h0.729c0.624,0,1.248,0.312,1.248,1.354c0,1.039-0.312,1.662-1.145,1.662h-0.728v-3.016H21.943z
		 M20.281,39.355c0.832,0.104,0.832,0.104,0.832,0.936v4.053c0,0.832,0,0.832-0.832,0.938v0.209h2.391v-0.209
		c-0.832-0.104-0.832-0.104-0.832-0.938v-1.66h0.832c1.145,1.869,1.352,2.81,1.975,2.81h0.937v-0.104
		c-0.312-0.205-0.832-0.828-1.247-1.451L23.4,42.578c0.728-0.311,1.246-0.936,1.246-1.871c0-1.039-0.936-1.559-1.871-1.559h-2.702
		v0.207"/>
	<path d="M37.018,45.488h2.494v-0.207c-0.83-0.105-0.83-0.105-0.83-0.938v-1.038c0-0.207,0-0.521,0.104-0.623l1.562-2.81
		c0.207-0.416,0.521-0.521,0.729-0.521v-0.207H39.2v0.207c0.521,0,0.831,0.312,0.521,0.832l-1.248,2.285l-1.145-2.285
		c-0.207-0.521-0.312-0.832,0.416-0.832v-0.207h-2.287v0.207c0.417,0,0.729,0.209,0.938,0.832l1.453,2.808v1.454
		c0,0.832,0,0.832-0.83,0.937V45.488"/>
	<path d="M45.229,45.592c1.979,0,3.434-1.559,3.434-3.533c0-1.455-1.146-3.119-3.118-3.119c-1.871,0-3.435,1.457-3.435,3.435
		C42.109,44.24,43.462,45.592,45.229,45.592 M45.438,45.281c-1.145,0-2.287-1.146-2.287-3.328c0-1.246,0.623-2.598,2.187-2.598
		c1.146,0,2.287,0.936,2.287,3.014C47.62,43.617,47.102,45.281,45.438,45.281"/>
	<path d="M50.427,39.459h1.248c0.623,0,0.831,0.52,0.935,1.145h0.209v-1.455h-4.055v0.207c0.832,0.104,0.832,0.104,0.832,0.938
		v4.156c0,0.832,0,0.832-0.832,0.936v0.209h2.494v-0.209c-0.831-0.104-0.831-0.104-0.831-0.936v-1.976h0.831
		c0.624,0,0.832,0.312,0.832,0.832h0.208v-1.871H52.09c0,0.521-0.312,0.83-0.832,0.83h-0.831V39.459L50.427,39.459z"/>
	<path d="M16.85,39.459h0.521c0.832,0,1.353,0.312,1.353,1.248c0,1.039-0.625,1.352-1.145,1.352H16.85V39.459z M16.85,42.369h0.625
		c0.832,0,1.559,0.416,1.559,1.455c0,0.938-0.416,1.457-1.248,1.457c-0.727,0-0.936-0.209-0.936-1.041V42.369L16.85,42.369z
		 M15.188,39.146v0.209c0.832,0.104,0.832,0.104,0.832,0.936v4.158c0,0.832,0,0.832-0.832,0.936v0.207h2.494
		c1.352,0,2.287-0.52,2.287-1.869c0-0.938-0.727-1.561-1.767-1.664l0,0c0.728-0.207,1.351-0.729,1.351-1.561
		c0-1.039-0.728-1.352-2.183-1.352H15.188"/>
	<path d="M13.732,40.291c0-0.832,0-0.832,0.832-0.936v-0.209h-2.496v0.209c0.832,0.104,0.832,0.104,0.832,0.936v4.158
		c0,0.832,0,0.832-0.832,0.936v0.207h2.496v-0.207c-0.832-0.104-0.832-0.104-0.832-0.936V40.291z"/>
	<path d="M7.287,45.488h4.47l0.312-1.664h-0.207c-0.416,0.938-0.416,1.352-1.663,1.352c-0.832,0-1.144-0.104-1.144-0.727v-4.264
		c0-0.83,0-0.83,0.832-0.938V39.04H7.391v0.312c0.832,0.104,0.832,0.104,0.832,0.938v4.053c0,0.832,0,0.832-0.832,0.938v0.209
		L7.287,45.488L7.287,45.488z"/>
	<path d="M31.091,36.34c1.976,0,3.433-1.559,3.433-3.533c0-1.455-1.146-3.118-3.119-3.118c-1.868,0-3.427,1.454-3.427,3.43
		C27.973,34.885,29.43,36.34,31.091,36.34 M31.404,36.029c-1.146,0-2.288-1.146-2.288-3.328c0-1.246,0.624-2.598,2.183-2.598
		c1.145,0,2.287,0.936,2.287,3.014C33.587,34.262,33.066,36.029,31.404,36.029"/>
	<path d="M40.76,36.236v-5.197c0-0.209,0-0.312,0.104-0.52c0-0.313,0.312-0.417,0.832-0.521V29.79h-2.391V30
		c0.622,0,0.938,0.208,0.938,0.52c0,0.104,0.104,0.312,0.104,0.521v3.742l0,0c-1.354-1.662-2.811-3.324-4.158-4.989h-1.664V30
		c0.521,0,0.832,0.312,1.039,0.624v4.262c0,0.209,0,0.312-0.104,0.521c0,0.311-0.312,0.416-0.831,0.52v0.312h2.184v-0.207
		c-0.623,0-0.936-0.209-0.936-0.521c0-0.104-0.104-0.312-0.104-0.52v-4.056c1.455,1.769,3.017,3.531,4.473,5.304h0.518"/>
	<path d="M26.934,30.936c0-0.833,0-0.833,0.832-0.936v-0.208h-2.494V30c0.832,0.104,0.832,0.104,0.832,0.936v4.058
		c0,0.832,0,0.832-0.832,0.937v0.312h2.494v-0.207c-0.832-0.104-0.832-0.104-0.832-0.938V30.936z"/>
	<path d="M18.514,34.055L18.93,35.2c0.104,0.416,0.104,0.729-0.52,0.729v0.312h2.078v-0.207c-0.415,0-0.52-0.312-0.727-0.832
		c-0.312-0.832-1.248-3.642-1.873-5.406h-0.416c-0.728,1.978-1.871,4.99-2.183,5.822c-0.104,0.312-0.416,0.416-0.624,0.416v0.207
		h1.664v-0.207c-0.416,0-0.624-0.312-0.416-0.625l0.416-1.246h2.184L18.514,34.055L18.514,34.055z M16.331,33.742l1.04-3.016l0,0
		l0.936,3.016H16.331z"/>
	<path d="M22.672,30.103h0.831c0.832,0,0.937,0.52,1.248,1.145h0.208l-0.208-1.457h-5.093l-0.104,1.457h0.207
		c0.312-0.625,0.521-1.145,1.247-1.145h0.832v4.991c0,0.832,0,0.832-0.832,0.938v0.209h2.495v-0.21
		c-0.831-0.207-0.831-0.104-0.831-0.938V30.103L22.672,30.103z"/>
	<path d="M44.812,34.055l0.416,1.146c0.104,0.416,0.104,0.729-0.521,0.729v0.312h2.078v-0.207c-0.416,0-0.521-0.312-0.729-0.832
		c-0.312-0.832-1.246-3.642-1.871-5.406h-0.521c-0.729,1.978-1.871,4.99-2.186,5.822c-0.104,0.312-0.416,0.416-0.623,0.416v0.207
		h1.662v-0.207c-0.416,0-0.623-0.312-0.416-0.625l0.416-1.246h2.287v-0.104h0.004v-0.004H44.812z M42.525,33.742l1.039-3.016l0,0
		l0.937,3.016H42.525z"/>
	<path d="M46.684,36.236h4.471l0.312-1.662h-0.208c-0.416,0.934-0.416,1.352-1.661,1.352c-0.834,0-1.146-0.104-1.146-0.729v-4.262
		c0-0.833,0-0.833,0.831-0.938V29.79h-2.494V30c0.832,0.104,0.832,0.104,0.832,0.936v4.058c0,0.832,0,0.832-0.832,0.937v0.312
		h-0.105V36.236L46.684,36.236z"/>
	<path d="M14.562,36.236v-5.197c0-0.209,0-0.312,0.104-0.52c0-0.313,0.312-0.417,0.832-0.521V29.79h-2.183V30
		c0.623,0,0.936,0.208,0.936,0.52c0,0.104,0.104,0.312,0.104,0.521v3.742l0,0c-1.351-1.662-2.807-3.324-4.157-4.989H8.534V30
		c0.52,0,0.832,0.312,1.04,0.624v4.262c0,0.209,0,0.312-0.104,0.521c0,0.311-0.312,0.416-0.832,0.52v0.312h2.182v-0.207
		c-0.624,0-0.936-0.209-0.936-0.521c0-0.104-0.104-0.312-0.104-0.52v-4.056c1.456,1.769,3.015,3.531,4.47,5.304h0.312"/>
	<path d="M23.503,48.711h0.937c1.767,0,2.701,1.039,2.701,2.701c0,2.287-1.143,3.018-2.599,3.018c-0.832,0-1.144,0-1.144-1.041
		v-4.678H23.503z M21.84,48.711c0.832,0.104,0.832,0,0.832,0.832v4.156c0,0.832,0,0.832-0.832,0.938v0.209h2.807
		c2.287,0,3.639-1.561,3.639-3.328c0-1.869-1.145-3.016-3.326-3.016h-3.016v0.209H21.84z"/>
	<path d="M16.955,54.846h4.469l0.312-1.664h-0.209c-0.416,0.938-0.312,1.354-1.664,1.354c-0.831,0-1.143-0.104-1.143-0.832v-2.078
		h0.729c0.624,0,0.832,0.312,0.832,0.83h0.207v-1.978h-0.207c0,0.521-0.312,0.832-0.832,0.832H18.72v-2.6h1.247
		c0.624,0,0.832,0.52,0.937,1.145h0.207V48.4h-4.053v0.311c0.83,0.105,0.83,0.105,0.83,0.938v4.158c0,0.832,0,0.832-0.83,0.938
		v0.104h-0.103V54.846z"/>
	<path d="M12.172,54.846h0.104l2.496-4.99l0,0V53.7c0,0.832,0,0.832-0.832,0.938v0.209h2.494v-0.209
		c-0.832-0.104-0.832-0.104-0.832-0.938v-4.054c0-0.625,0.209-0.938,0.937-0.938v-0.207h-1.455l-2.599,5.094l-2.497-5.094H8.221
		v0.207c0.416,0,0.936,0.312,1.04,0.832v4.158c0,0.209,0,0.312-0.104,0.521c0,0.312-0.312,0.416-0.832,0.521v0.209h2.079V54.74
		c-0.417,0-0.728-0.209-0.832-0.521c0-0.104,0-0.312,0-0.521v-3.742l0,0L12.172,54.846z"/>
	<path d="M30.052,49.543c0-0.832,0-0.832,0.832-0.936v-0.209h-2.495v0.312c0.832,0.104,0.832,0.104,0.832,0.938v4.156
		c0,0.829,0,0.829-0.832,0.936v0.209h2.495V54.74c-0.832-0.105-0.832-0.105-0.832-0.936V49.543z"/>
	<path d="M36.809,53.182c-0.312,0.729-0.83,1.455-2.078,1.455c-1.871,0-2.703-1.248-2.703-3.119c0-1.662,0.832-2.91,2.496-2.91
		c1.455,0,1.871,0.832,1.978,1.562h0.208v-1.146c0-0.104-0.104-0.312-0.312-0.312c-0.416-0.104-0.832-0.312-1.77-0.312
		c-2.495,0-3.641,1.871-3.641,3.223c0,2.496,1.664,3.326,3.535,3.326c0.832,0,1.455-0.104,1.769-0.312
		c0.208-0.104,0.416-0.104,0.416-0.311l0.312-1.145H36.809"/>
	<path d="M38.889,49.543c0-0.832,0-0.832,0.832-0.936v-0.209h-2.496v0.312c0.832,0.104,0.832,0.104,0.832,0.938v4.156
		c0,0.829,0,0.829-0.832,0.936v0.209h2.496V54.74c-0.832-0.105-0.832-0.105-0.832-0.936V49.543z"/>
	<path d="M46.164,54.846v-5.197c0-0.209,0-0.312,0.104-0.521c0-0.312,0.312-0.416,0.832-0.521v-0.209h-2.183v0.312
		c0.623,0,0.935,0.207,0.935,0.521c0,0.104,0.104,0.312,0.104,0.521v3.74l0,0c-1.353-1.662-2.808-3.324-4.158-4.988h-1.664v0.207
		c0.521,0,0.832,0.312,1.04,0.623V53.6c0,0.209,0,0.312-0.104,0.521c0,0.312-0.312,0.414-0.832,0.521v0.209h2.183v-0.209
		c-0.623,0-0.937-0.207-0.937-0.521c0-0.104-0.104-0.312-0.104-0.521v-4.057c1.456,1.77,3.017,3.535,4.472,5.305h0.312V54.846z"/>
	<path d="M47.204,54.846h4.471l0.312-1.664h-0.207c-0.418,0.938-0.312,1.354-1.66,1.354c-0.833,0-1.146-0.104-1.146-0.832v-2.078
		H49.7c0.623,0,0.831,0.312,0.831,0.83h0.207v-1.978h-0.209c0,0.521-0.312,0.832-0.83,0.832h-0.729v-2.6h1.244
		c0.623,0,0.831,0.52,0.938,1.145h0.207V48.4h-4.053v0.311c0.83,0.105,0.83,0.105,0.83,0.938v4.158c0,0.832,0,0.832-0.83,0.938
		v0.104"/>
</g>
</svg>
