<?xml version="1.0" encoding="utf-8"?>
<!-- Generator: Adobe Illustrator 16.0.0, SVG Export Plug-In . SVG Version: 6.00 Build 0)  -->
<!DOCTYPE svg PUBLIC "-//W3C//DTD SVG 1.1//EN" "http://www.w3.org/Graphics/SVG/1.1/DTD/svg11.dtd">
<svg version="1.1" id="Layer_1" xmlns="http://www.w3.org/2000/svg" xmlns:xlink="http://www.w3.org/1999/xlink" x="0px" y="0px"
	 width="95px" height="60px" viewBox="0 0 95 60" enable-background="new 0 0 95 60" xml:space="preserve">
<g>
	<path d="M59.312,33.164c0,1.621,0.221,2.428,0.811,3.092c0.365,0.369,0.883,0.59,1.471,0.59c1.473,0,2.354-1.178,2.354-3.242
		c0-2.279-0.955-3.752-2.502-3.752C60.049,29.851,59.312,31.102,59.312,33.164 M63.945,36.031c-0.66,1.324-1.543,2.061-2.871,2.061
		c-1.986,0-3.385-1.914-3.385-4.705c0-2.873,1.396-4.783,3.385-4.783c1.842,0,2.432,1.324,2.871,2.281v-2.06h1.473v9.05
		c0,2.354-1.473,3.68-3.975,3.68c-2.061,0-3.459-0.957-3.459-2.281c0-0.223,0-0.518,0.072-0.811l1.326,0.59
		c-0.148,0.955,0.955,1.254,2.061,1.254c1.473,0,2.43-0.738,2.43-1.916L63.945,36.031"/>
	<path d="M68.145,33.457c0,2.135,0.953,3.389,2.65,3.389c1.545,0,2.502-1.324,2.502-3.459c0-2.434-1.182-3.461-2.65-3.461
		C69.098,29.925,68.145,31.176,68.145,33.457 M74.912,33.311c0,2.945-1.691,4.855-4.268,4.855c-2.432,0-4.121-1.988-4.121-4.779
		c0-2.727,1.693-4.709,4.193-4.709C73.146,28.601,74.912,30.512,74.912,33.311"/>
	<polygon points="74.691,28.895 76.164,28.895 78.373,35.738 80.58,28.895 82.051,28.895 79.256,37.873 77.561,37.873 	"/>
	<polygon points="28.696,19.104 31.275,19.033 28.475,20.651 28.035,23.153 26.784,21.683 23.987,23.227 25.976,20.801 
		24.65,19.251 27.226,19.179 29.139,16.754 	"/>
	<path d="M23.84,19.991c-10.082,1.323-17.512,4.71-20.09,7.653c2.649-2.429,11.188-5.299,20.753-6.844"/>
	<path d="M28.035,24.555c-0.293,0-0.588,0-0.809,0.146c-0.588,0.365-0.514,1.616-0.514,2.133v5.371c0,1.623-0.074,3.463-1.399,4.711
		c-1.179,1.104-2.649,1.398-4.194,1.398c-1.031,0-1.839-0.074-2.796-0.441c-2.577-0.885-3.311-2.432-3.311-4.932v-8.388h-1.695
		v-0.442h6.624v0.442H18.25v8.022c0,1.176-0.074,2.572,0.661,3.605c0.736,1.029,1.765,1.322,3.018,1.322
		c1.47,0,3.015-0.586,3.681-1.838c0.588-1.105,0.515-2.357,0.515-3.535v-5.445c0-1.252-0.073-2.133-1.621-2.133h-0.442V24.11h4.047
		v0.442h-0.074V24.555z"/>
	<path d="M44.003,28.16l-1.766,4.93h3.609L44.003,28.16z M45.772,37.873v-0.369h1.62l-1.473-3.975h-3.901l-0.811,2.283
		c-0.146,0.367-0.223,0.736-0.223,1.031c0,0.734,1.034,0.588,1.548,0.588v0.367h-4.047v-0.367H39c1.029,0,1.397-0.736,1.692-1.545
		l4.487-12.217h0.294l5.371,13.762h1.324v0.367h-6.402v0.076h0.005L45.772,37.873L45.772,37.873z"/>
	<path d="M54.75,38.092c-0.811,0-1.547-0.736-1.547-1.543c0-0.885,0.736-1.549,1.547-1.549s1.545,0.738,1.545,1.549
		C56.295,37.43,55.631,38.092,54.75,38.092"/>
	<path d="M33.922,38.166c-1.254,0-2.208-0.369-3.387-0.736c-0.075-0.074-0.221-0.074-0.369-0.145
		c-0.219-0.074-0.662-0.367-0.883-0.367c-0.514,0-0.441,0.514-0.663,0.734v0.146h-0.367l-0.074-5.221h0.441
		c0.367,1.396,0.81,2.426,1.767,3.459c0.958,1.029,2.134,1.691,3.607,1.691c1.618,0,3.09-1.029,3.09-2.648
		c0-1.838-1.545-2.283-3.163-2.648l-1.254-0.297c-1.104-0.223-2.208-0.443-3.09-1.18c-0.368-0.293-0.588-0.586-0.809-0.956
		c-0.368-0.661-0.515-1.398-0.515-2.133c0-2.578,2.138-4.122,4.634-4.122c1.18,0,2.136,0.366,3.167,0.811
		c0.294,0.146,0.661,0.293,1.029,0.293c0.514,0,0.514-0.439,0.514-0.811h0.443v4.417h-0.443c-0.441-2.209-1.986-4.344-4.561-4.344
		c-1.473,0-3.018,0.886-3.018,2.43c0,1.621,1.692,1.99,3.09,2.285c0.738,0.146,1.475,0.22,2.209,0.439
		c2.354,0.515,3.682,1.985,3.682,4.339C38.929,36.324,36.718,38.166,33.922,38.166"/>
	<path d="M31.348,41.627c-0.146,0.146-0.219,0.223-0.366,0.369c-0.293,0.219-0.735,0.367-1.104,0.367
		c-1.104,0-1.841-0.662-1.841-1.766c0-1.18,0.737-1.916,1.841-1.916c0.588,0,1.028,0.295,1.251,0.588l-0.294,0.369
		c-0.219-0.369-0.588-0.59-1.029-0.59c-0.811,0-1.253,0.59-1.253,1.475c0,0.811,0.441,1.326,1.253,1.326
		c0.513,0,0.81-0.223,0.957-0.445v-0.588H29.29v-0.439h1.986v1.25H31.348z"/>
	<path d="M32.522,41.109c0,0.592,0.293,0.887,0.734,0.887s0.737-0.369,0.737-0.887c0-0.658-0.296-0.883-0.737-0.883
		C32.815,40.152,32.522,40.523,32.522,41.109 M34.438,41.039c0,0.811-0.44,1.252-1.179,1.252c-0.663,0-1.179-0.518-1.179-1.252
		s0.516-1.254,1.179-1.254C33.996,39.785,34.438,40.305,34.438,41.039"/>
	<polygon points="34.953,39.932 35.32,39.932 35.983,41.773 36.571,39.932 37.014,39.932 36.204,42.359 35.761,42.359 	"/>
	<path d="M39.223,40.893c-0.075-0.74-0.587-0.74-0.663-0.74c-0.366,0-0.66,0.301-0.66,0.74H39.223z M39.662,41.627
		c-0.075,0.223-0.146,0.295-0.294,0.369c-0.222,0.219-0.516,0.295-0.81,0.295c-0.66,0-1.104-0.518-1.104-1.252
		s0.441-1.254,1.18-1.254c0.588,0,1.104,0.52,1.104,1.107c0,0.07,0,0.146,0,0.217H37.97c0.075,0.812,0.588,0.812,0.735,0.812
		c0.517,0,0.663-0.367,0.663-0.52L39.662,41.627z"/>
	<path d="M40.837,40.451c0.146-0.225,0.295-0.52,0.664-0.52c0.072,0,0.146,0,0.146,0v0.373c-0.075,0-0.146,0-0.222,0
		c-0.365,0-0.664,0.219-0.664,0.588v1.398h-0.437v-2.359h0.441v0.52H40.837z"/>
	<path d="M44.445,42.359h-0.441v-1.547c0-0.367-0.22-0.588-0.514-0.588c-0.368,0-0.662,0.221-0.662,0.588v1.471h-0.441v-2.355h0.441
		v0.443c0.221-0.295,0.515-0.518,0.811-0.518c0.441,0,0.809,0.295,0.809,0.812L44.445,42.359L44.445,42.359z"/>
	<path d="M48.789,42.359h-0.445v-1.547c0-0.367-0.219-0.588-0.513-0.588c-0.369,0-0.592,0.221-0.592,0.66v1.398H46.8v-1.473
		c0-0.439-0.146-0.664-0.513-0.664c-0.369,0-0.587,0.297-0.587,0.59v1.477h-0.444v-2.359H45.7v0.445
		c0.218-0.371,0.44-0.52,0.733-0.52c0.366,0,0.589,0.146,0.735,0.52c0.147-0.223,0.366-0.52,0.81-0.52
		c0.442,0,0.735,0.367,0.735,0.812v1.768H48.789z"/>
	<path d="M51.289,40.893c-0.072-0.74-0.588-0.74-0.66-0.74c-0.367,0-0.664,0.301-0.664,0.74H51.289z M51.66,41.627
		c-0.076,0.223-0.15,0.295-0.297,0.369c-0.221,0.219-0.516,0.295-0.809,0.295c-0.664,0-1.105-0.518-1.105-1.252
		s0.441-1.254,1.18-1.254c0.66,0,1.104,0.52,1.104,1.107c0,0.07,0,0.146,0,0.217h-1.768c0.074,0.812,0.59,0.812,0.736,0.812
		c0.514,0,0.66-0.367,0.66-0.52L51.66,41.627z"/>
	<path d="M54.527,42.359h-0.439v-1.547c0-0.367-0.219-0.588-0.514-0.588c-0.371,0-0.664,0.221-0.664,0.588v1.471h-0.441v-2.355
		h0.441v0.443c0.219-0.295,0.514-0.518,0.811-0.518c0.441,0,0.807,0.295,0.807,0.812V42.359L54.527,42.359z"/>
	<path d="M55.926,38.977v0.883h0.516v0.367h-0.516v1.477c0,0.221,0.072,0.295,0.223,0.295c0.072,0,0.146,0,0.293-0.074v0.369
		c-0.221,0.072-0.293,0.072-0.367,0.072c-0.369,0-0.59-0.148-0.59-0.441v-1.695h-0.439v-0.367h0.439v-0.59L55.926,38.977z"/>
	<polygon points="69.316,38.828 70.131,38.828 70.131,42.359 69.689,42.359 69.689,39.27 68.658,42.359 68.145,42.359 67.188,39.27 
		67.188,42.359 66.67,42.359 66.67,38.828 67.48,38.828 68.438,41.701 	"/>
	<path d="M72.482,40.816c-0.148,0.146-0.221,0.146-0.514,0.223c-0.299,0.07-0.445,0.07-0.516,0.219
		c-0.076,0.076-0.146,0.223-0.146,0.297c0,0.295,0.217,0.441,0.514,0.441c0.148,0,0.367-0.074,0.514-0.223
		c0.148-0.146,0.225-0.293,0.225-0.586v-0.371H72.482L72.482,40.816z M70.939,40.377c0.072-0.225,0.219-0.518,1.029-0.518
		c0.957,0,0.957,0.445,0.957,0.738v1.176c0,0.295,0,0.295,0.223,0.295v0.295c-0.15,0.074-0.223,0.074-0.295,0.074
		c-0.369,0-0.369-0.295-0.369-0.441c-0.145,0.146-0.439,0.441-0.881,0.441c-0.445,0-0.811-0.369-0.811-0.811
		c0-0.225,0.07-0.369,0.219-0.52c0.146-0.145,0.441-0.293,0.809-0.293c0.371-0.068,0.441-0.068,0.592-0.219
		c0-0.293-0.072-0.369-0.514-0.369c-0.371,0-0.592,0.076-0.74,0.369L70.939,40.377z"/>
	<path d="M74.102,41.109c0,0.518,0.225,0.887,0.592,0.887c0.146,0,0.367-0.074,0.439-0.146c0.15-0.146,0.223-0.369,0.223-0.74
		c0-0.883-0.662-0.883-0.734-0.883C74.324,40.152,74.102,40.523,74.102,41.109 M75.43,38.828h0.439v3.463H75.43v-0.59
		c-0.146,0.295-0.297,0.59-0.811,0.59c-0.592,0-0.957-0.518-0.957-1.252s0.365-1.254,0.957-1.254c0.514,0,0.664,0.367,0.811,0.592
		V38.828z"/>
	<path d="M78.373,40.893c-0.072-0.74-0.59-0.74-0.662-0.74c-0.371,0-0.664,0.301-0.664,0.74H78.373z M78.812,41.627
		c-0.072,0.223-0.146,0.295-0.295,0.369c-0.219,0.219-0.514,0.295-0.807,0.295c-0.666,0-1.105-0.518-1.105-1.252
		s0.439-1.254,1.178-1.254c0.662,0,1.104,0.52,1.104,1.107c0,0.07,0,0.146,0,0.217h-1.768c0.072,0.812,0.592,0.812,0.738,0.812
		c0.516,0,0.66-0.367,0.66-0.52L78.812,41.627z"/>
	<polygon points="80.799,38.828 83.154,38.828 83.008,39.27 81.316,39.27 81.316,40.305 82.861,40.305 82.861,40.746 81.316,40.746 
		81.316,41.922 83.008,41.922 83.154,42.359 80.799,42.359 	"/>
	<path d="M85.289,40.816c-0.146,0.146-0.221,0.146-0.516,0.223c-0.295,0.07-0.441,0.07-0.516,0.219
		c-0.074,0.076-0.146,0.223-0.146,0.297c0,0.295,0.221,0.441,0.514,0.441c0.148,0,0.371-0.074,0.518-0.223
		c0.146-0.146,0.225-0.293,0.225-0.586v-0.371H85.289L85.289,40.816z M83.744,40.377c0.072-0.225,0.221-0.518,1.029-0.518
		c0.955,0,0.955,0.445,0.955,0.738v1.176c0,0.295,0,0.295,0.225,0.295v0.295c-0.146,0.074-0.225,0.074-0.295,0.074
		c-0.369,0-0.369-0.295-0.369-0.441c-0.146,0.146-0.439,0.441-0.885,0.441c-0.439,0-0.811-0.369-0.811-0.811
		c0-0.225,0.074-0.369,0.223-0.52c0.148-0.145,0.441-0.293,0.883-0.293c0.369-0.068,0.443-0.068,0.59-0.219
		c0-0.293-0.072-0.369-0.516-0.369c-0.369,0-0.59,0.076-0.734,0.369L83.744,40.377z"/>
	<path d="M86.834,41.48c0.076,0.369,0.295,0.516,0.738,0.516c0.365,0,0.588-0.146,0.588-0.369s-0.223-0.293-0.664-0.369
		c-0.516-0.07-0.957-0.219-0.957-0.734c0-0.443,0.441-0.664,0.957-0.664c0.736,0,0.959,0.52,0.959,0.664l-0.295,0.225
		c-0.074-0.369-0.293-0.52-0.664-0.52c-0.293,0-0.586,0.148-0.586,0.295c0,0.225,0.219,0.293,0.662,0.369
		c0.146,0,0.957,0.07,0.957,0.734c0,0,0,0.736-1.104,0.736c-0.299,0-0.592-0.072-0.738-0.221c-0.148-0.074-0.219-0.221-0.295-0.441
		L86.834,41.48z"/>
	<path d="M89.113,39.932h0.441l0.664,1.842l0.588-1.842h0.443l-0.811,2.506l-0.072,0.146c-0.148,0.369-0.223,0.662-0.812,0.662
		c-0.074,0-0.146,0-0.295,0v-0.369c0.148,0,0.221,0,0.295,0c0.295,0,0.371-0.07,0.518-0.514L89.113,39.932z"/>
</g>
</svg>
